<mxfile host="app.diagrams.net" agent="Mozilla/5.0 (Windows NT 10.0; Win64; x64) AppleWebKit/537.36 (KHTML, like Gecko) Chrome/129.0.0.0 Safari/537.36" version="24.7.14">
  <diagram name="Página-1" id="OqUwzaEDlnO-dhrFErUZ">
    <mxGraphModel dx="2514" dy="875" grid="1" gridSize="10" guides="1" tooltips="1" connect="1" arrows="1" fold="1" page="1" pageScale="1" pageWidth="827" pageHeight="1169" math="0" shadow="0">
      <root>
        <mxCell id="0" />
        <mxCell id="1" parent="0" />
        <mxCell id="TpjbUW-siHAZDKKyS0_v-1" value="Caso de Uso" style="shape=umlFrame;whiteSpace=wrap;html=1;pointerEvents=0;recursiveResize=0;container=1;collapsible=0;width=160;" vertex="1" parent="1">
          <mxGeometry x="40" y="370" width="320" height="380" as="geometry" />
        </mxCell>
        <mxCell id="TpjbUW-siHAZDKKyS0_v-7" value="Login" style="ellipse;whiteSpace=wrap;html=1;" vertex="1" parent="TpjbUW-siHAZDKKyS0_v-1">
          <mxGeometry x="100" y="120" width="110" height="40" as="geometry" />
        </mxCell>
        <mxCell id="TpjbUW-siHAZDKKyS0_v-9" value="Gerenciar estoque" style="ellipse;whiteSpace=wrap;html=1;" vertex="1" parent="TpjbUW-siHAZDKKyS0_v-1">
          <mxGeometry x="100" y="215" width="110" height="40" as="geometry" />
        </mxCell>
        <mxCell id="TpjbUW-siHAZDKKyS0_v-11" value="gerenciar agendamentos" style="ellipse;whiteSpace=wrap;html=1;" vertex="1" parent="TpjbUW-siHAZDKKyS0_v-1">
          <mxGeometry x="100" y="280" width="110" height="40" as="geometry" />
        </mxCell>
        <mxCell id="TpjbUW-siHAZDKKyS0_v-13" value="Registrar" style="ellipse;whiteSpace=wrap;html=1;" vertex="1" parent="TpjbUW-siHAZDKKyS0_v-1">
          <mxGeometry x="100" y="70" width="110" height="40" as="geometry" />
        </mxCell>
        <mxCell id="TpjbUW-siHAZDKKyS0_v-8" style="edgeStyle=orthogonalEdgeStyle;rounded=0;orthogonalLoop=1;jettySize=auto;html=1;entryX=0;entryY=0.5;entryDx=0;entryDy=0;" edge="1" parent="1" source="TpjbUW-siHAZDKKyS0_v-2" target="TpjbUW-siHAZDKKyS0_v-7">
          <mxGeometry relative="1" as="geometry" />
        </mxCell>
        <mxCell id="TpjbUW-siHAZDKKyS0_v-10" style="edgeStyle=orthogonalEdgeStyle;rounded=0;orthogonalLoop=1;jettySize=auto;html=1;entryX=0;entryY=0.5;entryDx=0;entryDy=0;" edge="1" parent="1" source="TpjbUW-siHAZDKKyS0_v-2" target="TpjbUW-siHAZDKKyS0_v-9">
          <mxGeometry relative="1" as="geometry" />
        </mxCell>
        <mxCell id="TpjbUW-siHAZDKKyS0_v-12" style="edgeStyle=orthogonalEdgeStyle;rounded=0;orthogonalLoop=1;jettySize=auto;html=1;entryX=0;entryY=0.5;entryDx=0;entryDy=0;" edge="1" parent="1" source="TpjbUW-siHAZDKKyS0_v-2" target="TpjbUW-siHAZDKKyS0_v-11">
          <mxGeometry relative="1" as="geometry" />
        </mxCell>
        <mxCell id="TpjbUW-siHAZDKKyS0_v-14" style="edgeStyle=orthogonalEdgeStyle;rounded=0;orthogonalLoop=1;jettySize=auto;html=1;entryX=0;entryY=0.5;entryDx=0;entryDy=0;" edge="1" parent="1" source="TpjbUW-siHAZDKKyS0_v-2" target="TpjbUW-siHAZDKKyS0_v-13">
          <mxGeometry relative="1" as="geometry" />
        </mxCell>
        <mxCell id="TpjbUW-siHAZDKKyS0_v-2" value="Usuário" style="shape=umlActor;verticalLabelPosition=bottom;verticalAlign=top;html=1;" vertex="1" parent="1">
          <mxGeometry x="-40" y="525" width="30" height="60" as="geometry" />
        </mxCell>
      </root>
    </mxGraphModel>
  </diagram>
</mxfile>
